<?xml version="1.0" encoding="utf-8"?>
<!-- Generator: Adobe Illustrator 16.0.0, SVG Export Plug-In . SVG Version: 6.00 Build 0)  -->
<!DOCTYPE svg PUBLIC "-//W3C//DTD SVG 1.1//EN" "http://www.w3.org/Graphics/SVG/1.1/DTD/svg11.dtd">
<svg version="1.1" xmlns="http://www.w3.org/2000/svg" xmlns:xlink="http://www.w3.org/1999/xlink" x="0px" y="0px" width="400px"
	 height="400px" viewBox="0 0 400 400" enable-background="new 0 0 400 400" xml:space="preserve">
<g id="圖層_1">
	<path fill="#6D6D6D" stroke="#000000" stroke-miterlimit="10" d="M350,241.642c0,4.418-5.373,8-12,8H62c-6.627,0-12-3.582-12-8
		v-184c0-4.419,5.373-8,12-8h276c6.627,0,12,3.582,12,8V241.642z"/>
	<path fill="#FFFFFF" stroke="#000000" stroke-miterlimit="10" d="M330,217.642c0,6.627-5.373,12-12,12H82c-6.627,0-12-5.373-12-12
		v-136c0-6.627,5.373-12,12-12h236c6.627,0,12,5.373,12,12V217.642z"/>
</g>
<g id="圖層_2">
	<path fill="#515151" stroke="#000000" stroke-miterlimit="10" d="M373.509,360.316c3.638,8.695-0.747,16.017-9.934,16.017H36.425
		c-9.187,0-13.571-7.321-9.933-16.017l39.782-95.079c2.084-4.979,9.099-8.904,15.726-8.904h236c6.627,0,13.643,3.925,15.726,8.904
		L373.509,360.316z"/>
	<polygon fill="#FFFFFF" stroke="#000000" stroke-miterlimit="10" points="95.986,277.586 78.892,277.586 83.516,264.914 
		99.958,264.914 	"/>
	<polygon fill="#FFFFFF" stroke="#000000" stroke-miterlimit="10" points="118.567,277.586 101.473,277.586 105.234,264.914 
		121.676,264.914 	"/>
	<polygon fill="#FFFFFF" stroke="#000000" stroke-miterlimit="10" points="140.529,277.586 123.435,277.586 126.357,264.914 
		142.799,264.914 	"/>
	<polygon fill="#FFFFFF" stroke="#000000" stroke-miterlimit="10" points="163.109,277.586 146.015,277.586 148.076,264.914 
		164.518,264.914 	"/>
	<polygon fill="#FFFFFF" stroke="#000000" stroke-miterlimit="10" points="186.457,277.586 169.363,277.586 170.532,264.914 
		186.974,264.914 	"/>
	<polygon fill="#FFFFFF" stroke="#000000" stroke-miterlimit="10" points="209.038,277.586 191.943,277.586 192.251,264.914 
		208.692,264.914 	"/>
	<polygon fill="#FFFFFF" stroke="#000000" stroke-miterlimit="10" points="230.638,277.586 213.543,277.586 213.025,264.914 
		229.468,264.914 	"/>
	<polygon fill="#FFFFFF" stroke="#000000" stroke-miterlimit="10" points="252.601,277.586 235.506,277.586 234.15,264.914 
		250.592,264.914 	"/>
	<polygon fill="#FFFFFF" stroke="#000000" stroke-miterlimit="10" points="275.181,277.586 258.086,277.586 255.869,264.914 
		272.311,264.914 	"/>
	<polygon fill="#FFFFFF" stroke="#000000" stroke-miterlimit="10" points="298.527,277.586 281.433,277.586 278.324,264.914 
		294.766,264.914 	"/>
	<polygon fill="#FFFFFF" stroke="#000000" stroke-miterlimit="10" points="321.107,277.586 304.013,277.586 300.042,264.914 
		316.484,264.914 	"/>
	<polygon fill="#FFFFFF" stroke="#000000" stroke-miterlimit="10" points="90.443,295.276 72.438,295.276 77.557,281.246 
		94.84,281.246 	"/>
	<polygon fill="#FFFFFF" stroke="#000000" stroke-miterlimit="10" points="114.227,295.276 96.222,295.276 100.386,281.246 
		117.669,281.246 	"/>
	<polygon fill="#FFFFFF" stroke="#000000" stroke-miterlimit="10" points="137.359,295.276 119.354,295.276 122.59,281.246 
		139.873,281.246 	"/>
	<polygon fill="#FFFFFF" stroke="#000000" stroke-miterlimit="10" points="161.143,295.276 143.138,295.276 145.419,281.246 
		162.703,281.246 	"/>
	<polygon fill="#FFFFFF" stroke="#000000" stroke-miterlimit="10" points="185.735,295.276 167.73,295.276 169.025,281.246 
		186.308,281.246 	"/>
	<polygon fill="#FFFFFF" stroke="#000000" stroke-miterlimit="10" points="209.52,295.276 191.514,295.276 191.854,281.246 
		209.138,281.246 	"/>
	<polygon fill="#FFFFFF" stroke="#000000" stroke-miterlimit="10" points="232.271,295.276 214.265,295.276 213.692,281.246 
		230.976,281.246 	"/>
	<polygon fill="#FFFFFF" stroke="#000000" stroke-miterlimit="10" points="255.403,295.276 237.397,295.276 235.897,281.246 
		253.18,281.246 	"/>
	<polygon fill="#FFFFFF" stroke="#000000" stroke-miterlimit="10" points="279.188,295.276 261.182,295.276 258.727,281.246 
		276.01,281.246 	"/>
	<polygon fill="#FFFFFF" stroke="#000000" stroke-miterlimit="10" points="303.777,295.276 285.772,295.276 282.33,281.246 
		299.613,281.246 	"/>
	<polygon fill="#FFFFFF" stroke="#000000" stroke-miterlimit="10" points="327.562,295.276 309.556,295.276 305.16,281.246 
		322.442,281.246 	"/>
	<polygon fill="#FFFFFF" stroke="#000000" stroke-miterlimit="10" points="84.938,314.584 65.939,314.584 71.603,298.996 
		89.8,298.996 	"/>
	<polygon fill="#FFFFFF" stroke="#000000" stroke-miterlimit="10" points="110.036,314.584 91.036,314.584 95.64,298.996 
		113.837,298.996 	"/>
	<polygon fill="#FFFFFF" stroke="#000000" stroke-miterlimit="10" points="134.445,314.584 115.446,314.584 119.018,298.996 
		137.215,298.996 	"/>
	<polygon fill="#FFFFFF" stroke="#000000" stroke-miterlimit="10" points="159.542,314.584 140.543,314.584 143.055,298.996 
		161.252,298.996 	"/>
	<polygon fill="#FFFFFF" stroke="#000000" stroke-miterlimit="10" points="185.493,314.584 166.493,314.584 167.909,298.996 
		186.105,298.996 	"/>
	<polygon fill="#FFFFFF" stroke="#000000" stroke-miterlimit="10" points="210.59,314.584 191.59,314.584 191.945,298.996 
		210.143,298.996 	"/>
	<polygon fill="#FFFFFF" stroke="#000000" stroke-miterlimit="10" points="234.597,314.584 215.598,314.584 214.938,298.996 
		233.136,298.996 	"/>
	<polygon fill="#FFFFFF" stroke="#000000" stroke-miterlimit="10" points="259.008,314.584 240.008,314.584 238.317,298.996 
		256.515,298.996 	"/>
	<polygon fill="#FFFFFF" stroke="#000000" stroke-miterlimit="10" points="284.105,314.584 265.105,314.584 262.354,298.996 
		280.552,298.996 	"/>
	<polygon fill="#FFFFFF" stroke="#000000" stroke-miterlimit="10" points="334.508,314.584 291.053,314.584 287.205,298.996 
		328.825,298.996 	"/>
	<polygon fill="#FFFFFF" stroke="#000000" stroke-miterlimit="10" points="77.502,336.247 57.387,336.247 63.75,318.818 
		82.968,318.818 	"/>
	<polygon fill="#FFFFFF" stroke="#000000" stroke-miterlimit="10" points="104.073,336.247 83.958,336.247 89.136,318.818 
		108.354,318.818 	"/>
	<polygon fill="#FFFFFF" stroke="#000000" stroke-miterlimit="10" points="129.916,336.247 109.801,336.247 113.825,318.818 
		133.043,318.818 	"/>
	<polygon fill="#FFFFFF" stroke="#000000" stroke-miterlimit="10" points="156.487,336.247 136.372,336.247 139.21,318.818 
		158.429,318.818 	"/>
	<polygon fill="#FFFFFF" stroke="#000000" stroke-miterlimit="10" points="183.961,336.247 163.845,336.247 165.458,318.818 
		184.676,318.818 	"/>
	<polygon fill="#FFFFFF" stroke="#000000" stroke-miterlimit="10" points="210.531,336.247 190.416,336.247 190.844,318.818 
		210.062,318.818 	"/>
	<polygon fill="#FFFFFF" stroke="#000000" stroke-miterlimit="10" points="235.948,336.247 215.833,336.247 215.127,318.818 
		234.345,318.818 	"/>
	<polygon fill="#FFFFFF" stroke="#000000" stroke-miterlimit="10" points="261.792,336.247 241.677,336.247 239.817,318.818 
		259.035,318.818 	"/>
	<polygon fill="#FFFFFF" stroke="#000000" stroke-miterlimit="10" points="288.363,336.247 268.248,336.247 265.203,318.818 
		284.421,318.818 	"/>
	<polygon fill="#FFFFFF" stroke="#000000" stroke-miterlimit="10" points="315.835,336.247 295.72,336.247 291.449,318.818 
		310.667,318.818 	"/>
	<polygon fill="#FFFFFF" stroke="#000000" stroke-miterlimit="10" points="342.406,336.247 322.291,336.247 316.834,318.818 
		336.052,318.818 	"/>
	<polygon fill="#FFFFFF" stroke="#000000" stroke-miterlimit="10" points="71.654,359.138 50.36,359.138 57.41,339.657 
		77.701,339.657 	"/>
	<polygon fill="#FFFFFF" stroke="#000000" stroke-miterlimit="10" points="99.783,359.138 78.488,359.138 84.213,339.657 
		104.504,339.657 	"/>
	<polygon fill="#FFFFFF" stroke="#000000" stroke-miterlimit="10" points="127.14,359.138 105.846,359.138 110.281,339.657 
		130.572,339.657 	"/>
	<polygon fill="#FFFFFF" stroke="#000000" stroke-miterlimit="10" points="265.414,359.138 133.974,359.138 137.084,339.657 
		262.332,339.657 	"/>
	<polygon fill="#FFFFFF" stroke="#000000" stroke-miterlimit="10" points="294.872,359.138 273.578,359.138 270.112,339.657 
		290.402,339.657 	"/>
	<polygon fill="#FFFFFF" stroke="#000000" stroke-miterlimit="10" points="323.954,359.138 302.66,359.138 297.823,339.657 
		318.114,339.657 	"/>
	<polygon fill="#FFFFFF" stroke="#000000" stroke-miterlimit="10" points="352.082,359.138 330.788,359.138 324.627,339.657 
		344.918,339.657 	"/>
</g>
<g id="圖層_3">
	<rect x="89.8" y="94" fill="#040000" width="197.405" height="13.5"/>
	<rect x="91.036" y="112.5" fill="#040000" width="154.614" height="9"/>
	<rect x="89.425" y="130.5" fill="#040000" width="176.101" height="8.5"/>
	<rect x="89.8" y="146" fill="#040000" width="128.7" height="11.5"/>
</g>
</svg>
