<?xml version="1.0" encoding="utf-8"?>
<!-- Generator: Adobe Illustrator 16.0.0, SVG Export Plug-In . SVG Version: 6.00 Build 0)  -->
<!DOCTYPE svg PUBLIC "-//W3C//DTD SVG 1.1//EN" "http://www.w3.org/Graphics/SVG/1.1/DTD/svg11.dtd">
<svg version="1.1" xmlns="http://www.w3.org/2000/svg" xmlns:xlink="http://www.w3.org/1999/xlink" x="0px" y="0px" width="400px"
	 height="400px" viewBox="0 0 400 400" enable-background="new 0 0 400 400" xml:space="preserve">
<g id="圖層_4">
	<path opacity="0.7" fill="#8F6C87" d="M400,387.294c0,7.019-5.689,12.706-12.706,12.706H52.706C45.688,400,40,394.312,40,387.294
		V52.706C40,45.689,45.688,40,52.706,40h334.588C394.311,40,400,45.689,400,52.706V387.294z"/>
</g>
<g id="圖層_3">
	<path fill="#EDD7E8" d="M360,347.294c0,7.018-5.689,12.706-12.707,12.706H12.706C5.688,360,0,354.312,0,347.294V12.706
		C0,5.689,5.688,0,12.706,0h334.587C354.311,0,360,5.689,360,12.706V347.294z"/>
</g>
<g id="圖層_1">
	<path fill="#B68EBF" d="M338.822,326.117c0,7.018-5.688,12.706-12.705,12.706H33.882c-7.017,0-12.706-5.688-12.706-12.706V33.882
		c0-7.017,5.689-12.706,12.706-12.706h292.235c7.018,0,12.705,5.689,12.705,12.706V326.117z"/>
</g>
<g id="圖層_2">
	<g>
		<g>
			<g>
				<line fill="none" stroke="#F1D9E9" stroke-width="30" stroke-miterlimit="10" x1="180" y1="78.849" x2="273.363" y2="78.849"/>
				<g>
					<polygon fill="#F1D9E9" points="262.422,116.246 327.182,78.853 262.422,41.455 					"/>
				</g>
			</g>
		</g>
		<g>
			<g>
				
					<line fill="none" stroke="#F1D9E9" stroke-width="30" stroke-miterlimit="10" x1="180" y1="211.765" x2="273.363" y2="211.765"/>
				<g>
					<polygon fill="#F1D9E9" points="262.422,249.162 327.182,211.769 262.422,174.371 					"/>
				</g>
			</g>
		</g>
	</g>
	<g>
		<g>
			<g>
				<line fill="none" stroke="#F1D9E9" stroke-width="30" stroke-miterlimit="10" x1="180" y1="281.969" x2="86.635" y2="281.969"/>
				<g>
					<polygon fill="#F1D9E9" points="97.578,244.571 32.817,281.965 97.578,319.362 					"/>
				</g>
			</g>
		</g>
		<g>
			<g>
				<line fill="none" stroke="#F1D9E9" stroke-width="30" stroke-miterlimit="10" x1="180" y1="149.054" x2="86.635" y2="149.054"/>
				<g>
					<polygon fill="#F1D9E9" points="97.578,111.656 32.817,149.05 97.578,186.447 					"/>
				</g>
			</g>
		</g>
	</g>
</g>
</svg>
